<?xml version="1.0" encoding="UTF-8"?>
<svg version="1.1" xmlns="http://www.w3.org/2000/svg" width="300" height="244">
<path d="M0 0 C15.84 0 31.68 0 48 0 C48 5.28 48 10.56 48 16 C40.08 16 32.16 16 24 16 C24 42.07 24 68.14 24 95 C16.08 95 8.16 95 0 95 C-1.0725 92.4425 -2.145 89.885 -3.25 87.25 C-13.1139881 64.65835274 -32.69956402 30.65021799 -56 19 C-56 13.06 -56 7.12 -56 1 C-34.6021006 9.55915976 -14.38244112 33.15674517 -1 51 C-0.67 34.17 -0.34 17.34 0 0 Z " fill="#21639F" transform="translate(168,65)"/>
<path d="M0 0 C8.25 0 16.5 0 25 0 C25.01401855 2.7841333 25.01401855 2.7841333 25.02832031 5.62451172 C25.06399571 11.79135288 25.11788664 17.95783008 25.18390274 24.12441826 C25.22323207 27.85932926 25.25549097 31.59400965 25.27099609 35.32910156 C25.28625975 38.94096111 25.32087336 42.55218599 25.36830902 46.16376114 C25.38302376 47.53423639 25.39103526 48.90480231 25.39188385 50.27535629 C25.40339795 59.55623576 25.66432854 68.66432854 32.5625 75.5625 C37.83702207 78.67311558 43.03719691 78.55631934 49 78 C56.14345461 76.14248951 62.0772879 72.29182036 68 68 C69.06096463 69.57046743 70.09826235 71.15694517 71.125 72.75 C71.70507812 73.63171875 72.28515625 74.5134375 72.8828125 75.421875 C74 78 74 78 73.51171875 80.05078125 C66.20235105 89.47552151 53.51319641 95.18403842 42 97 C30.84270507 97.82062141 20.91798163 96.0536622 12 89 C2.75209615 80.62979073 0.7838635 68.92979944 0 57 C-0.31736626 47.19166182 -0.18923492 37.37408113 -0.125 27.5625 C-0.11380018 24.88476899 -0.10582857 22.20704025 -0.09765625 19.52929688 C-0.0775079 13.01936621 -0.0383314 6.50994952 0 0 Z " fill="#2264A1" transform="translate(83,65)"/>
<path d="M0 0 C55.77 0 111.54 0 169 0 C169 43.56 169 87.12 169 132 C167.02 132 165.04 132 163 132 C163 90.09 163 48.18 163 5 C110.86 5 58.72 5 5 5 C5 48.56 5 92.12 5 137 C3.35 137 1.7 137 0 137 C0 91.79 0 46.58 0 0 Z " fill="#2668A7" transform="translate(66,42)"/>
<path d="M0 0 C25.59819542 10.23927817 47.72137261 38.59669172 62 61 C62.69343506 62.0825708 62.69343506 62.0825708 63.40087891 63.18701172 C69.76237155 73.17310098 75.21922339 83.16357301 80 94 C72.08 94 64.16 94 56 94 C54.9275 91.4425 53.855 88.885 52.75 86.25 C42.8860119 63.65835274 23.30043598 29.65021799 0 18 C0 12.06 0 6.12 0 0 Z " fill="#2668A8" transform="translate(112,66)"/>
<path d="M0 0 C0 0.66 0 1.32 0 2 C-6.8359375 1.77213542 -13.671875 1.54427083 -20.5078125 1.31640625 C-21.2006131 1.29416489 -21.8934137 1.27192352 -22.60720825 1.24900818 C-27.17634747 1.10075547 -31.74414013 0.93166962 -36.31201172 0.74829102 C-57.83376952 -0.08454027 -79.33917058 -0.20150391 -100.875 -0.1875 C-101.79800777 -0.18723312 -102.72101555 -0.18696625 -103.67199326 -0.18669128 C-148.75054666 -0.17037032 -193.39762102 1.87166783 -238.34761047 5.34127808 C-246.22858298 5.94806508 -254.11138461 6.50217084 -262 7 C-262 6.01 -262 5.02 -262 4 C-201.48716184 -6.39177708 -52.76267041 -26.3813352 0 0 Z " fill="#195B91" transform="translate(281,190)"/>
<path d="M0 0 C1.65 0 3.3 0 5 0 C5 3.3 5 6.6 5 10 C57.14 10 109.28 10 163 10 C163 6.7 163 3.4 163 0 C164.65 0 166.3 0 168 0 C168 5.28 168 10.56 168 16 C112.56 16 57.12 16 0 16 C0 10.72 0 5.44 0 0 Z " fill="#004B79" transform="translate(66,199)"/>
<path d="M0 0 C45.87 0 91.74 0 139 0 C139 0.66 139 1.32 139 2 C94.12 2 49.24 2 3 2 C3 51.83 3 101.66 3 153 C2.34 153 1.68 153 1 153 C0.67 102.51 0.34 52.02 0 0 Z " fill="#2567A7" transform="translate(53,30)"/>
<path d="M0 0 C7.92 0 15.84 0 24 0 C24 5.28 24 10.56 24 16 C16.08 16 8.16 16 0 16 C0 10.72 0 5.44 0 0 Z " fill="#E3AC22" transform="translate(140,65)"/>
<path d="M0 0 C1.65 0 3.3 0 5 0 C5 1.98 5 3.96 5 6 C3.35 6 1.7 6 0 6 C0 4.02 0 2.04 0 0 Z " fill="#2B6DB0" transform="translate(229,199)"/>
<path d="M0 0 C1.65 0 3.3 0 5 0 C5 1.98 5 3.96 5 6 C3.35 6 1.7 6 0 6 C0 4.02 0 2.04 0 0 Z " fill="#2B6DB0" transform="translate(66,199)"/>
</svg>
